<svg width="36" height="36" viewBox="0 0 36 36" fill="none" xmlns="http://www.w3.org/2000/svg">
<path d="M12.0247 3.56287C12.7651 3.56287 13.3608 4.15854 13.3608 4.89896V7.12577H22.268V4.89896C22.268 4.15854 22.8637 3.56287 23.6041 3.56287C24.3445 3.56287 24.9402 4.15854 24.9402 4.89896V7.12577H26.7217C28.6868 7.12577 30.2846 8.72351 30.2846 10.6887V26.7218C30.2846 28.6869 28.6868 30.2847 26.7217 30.2847H8.90714C6.94198 30.2847 5.34424 28.6869 5.34424 26.7218V10.6887C5.34424 8.72351 6.94198 7.12577 8.90714 7.12577H10.6886V4.89896C10.6886 4.15854 11.2843 3.56287 12.0247 3.56287ZM12.0247 9.79795H8.90714C8.41724 9.79795 8.01642 10.1988 8.01642 10.6887V13.3609H27.6124V10.6887C27.6124 10.1988 27.2116 9.79795 26.7217 9.79795H12.0247ZM8.01642 16.033V26.7218C8.01642 27.2117 8.41724 27.6125 8.90714 27.6125H26.7217C27.2116 27.6125 27.6124 27.2117 27.6124 26.7218V16.033H8.01642Z" fill="white"/>
</svg>
