<svg width="35" height="35" viewBox="0 0 35 35" fill="none" xmlns="http://www.w3.org/2000/svg">
<path d="M10.0132 7.51401C9.32964 6.83042 8.21948 6.83042 7.53589 7.51401C6.85229 8.19761 6.85229 9.30776 7.53589 9.99136L15.05 17.5L7.54136 25.014C6.85776 25.6976 6.85776 26.8078 7.54136 27.4914C8.22495 28.175 9.33511 28.175 10.0187 27.4914L17.5273 19.9773L25.0414 27.4859C25.725 28.1695 26.8351 28.1695 27.5187 27.4859C28.2023 26.8023 28.2023 25.6921 27.5187 25.0085L20.0046 17.5L27.5132 9.98589C28.1968 9.3023 28.1968 8.19214 27.5132 7.50854C26.8296 6.82495 25.7195 6.82495 25.0359 7.50854L17.5273 15.0226L10.0132 7.51401Z" fill="white"/>
</svg>
