<svg width="35" height="35" viewBox="0 0 35 35" fill="none" xmlns="http://www.w3.org/2000/svg">
<path d="M16.1875 4.8125C16.1875 4.08516 16.7727 3.5 17.5 3.5C18.2273 3.5 18.8125 4.08516 18.8125 4.8125V7H21.875C22.843 7 23.625 7.78203 23.625 8.75C23.625 9.71797 22.843 10.5 21.875 10.5H15.5914C14.2297 10.5 13.125 11.6047 13.125 12.9664C13.125 14.1969 14.0273 15.2359 15.2414 15.4109L20.2508 16.1273C23.193 16.5484 25.375 19.0641 25.375 22.0336C25.375 25.3312 22.7008 28 19.4086 28H18.8125V30.1875C18.8125 30.9148 18.2273 31.5 17.5 31.5C16.7727 31.5 16.1875 30.9148 16.1875 30.1875V28H12.25C11.282 28 10.5 27.218 10.5 26.25C10.5 25.282 11.282 24.5 12.25 24.5H19.4086C20.7703 24.5 21.875 23.3953 21.875 22.0336C21.875 20.8031 20.9727 19.7641 19.7586 19.5891L14.7492 18.8727C11.807 18.457 9.625 15.9359 9.625 12.9664C9.625 9.67422 12.2992 7 15.5914 7H16.1875V4.8125Z" fill="white"/>
</svg>
