<svg width="30" height="30" viewBox="0 0 30 30" fill="none" xmlns="http://www.w3.org/2000/svg">
<path d="M16.6125 3.92813C16.8469 3.36563 17.3953 3 18 3H25.5C26.3297 3 27 3.67031 27 4.5V12C27 12.6047 26.6344 13.1531 26.0719 13.3875C25.5094 13.6219 24.8672 13.4906 24.4359 13.0641L21.75 10.3734L14.5594 17.5594C13.9734 18.1453 13.0219 18.1453 12.4359 17.5594C11.85 16.9734 11.85 16.0219 12.4359 15.4359L19.6266 8.25L16.9406 5.55937C16.5094 5.12812 16.3828 4.48594 16.6172 3.92344L16.6125 3.92813ZM3 11.25C3 9.17812 4.67812 7.5 6.75 7.5H10.5C11.3297 7.5 12 8.17031 12 9C12 9.82969 11.3297 10.5 10.5 10.5H6.75C6.3375 10.5 6 10.8375 6 11.25V23.25C6 23.6625 6.3375 24 6.75 24H18.75C19.1625 24 19.5 23.6625 19.5 23.25V19.5C19.5 18.6703 20.1703 18 21 18C21.8297 18 22.5 18.6703 22.5 19.5V23.25C22.5 25.3219 20.8219 27 18.75 27H6.75C4.67812 27 3 25.3219 3 23.25V11.25Z" fill="white"/>
</svg>
