<svg width="260" height="260" viewBox="0 0 260 260" fill="none" xmlns="http://www.w3.org/2000/svg">
<path d="M97.2501 88.1499C90.1349 88.1499 84.3501 93.576 84.3501 100.25V160.75C84.3501 167.424 90.1349 172.85 97.2501 172.85H161.75C168.865 172.85 174.65 167.424 174.65 160.75V100.25C174.65 93.576 168.865 88.1499 161.75 88.1499H97.2501ZM110.15 103.275C115.492 103.275 119.825 107.34 119.825 112.35C119.825 117.36 115.492 121.425 110.15 121.425C104.809 121.425 100.475 117.36 100.475 112.35C100.475 107.34 104.809 103.275 110.15 103.275ZM139.175 124.45C140.868 124.45 142.42 125.282 143.307 126.624L161.045 153.849C161.952 155.248 161.992 157.006 161.145 158.443C160.299 159.88 158.666 160.75 156.913 160.75H102.088C100.294 160.75 98.6207 159.805 97.7943 158.311C96.9679 156.817 97.0888 155.002 98.1168 153.622L109.404 138.497C110.311 137.287 111.783 136.569 113.375 136.569C114.967 136.569 116.439 137.287 117.346 138.497L122.667 145.644L135.043 126.643C135.93 125.301 137.482 124.469 139.175 124.469V124.45Z" fill="white"/>
</svg>
