<svg width="29" height="29" viewBox="0 0 29 29" fill="none" xmlns="http://www.w3.org/2000/svg">
<path d="M5.79994 11.446C5.79994 6.7244 9.69682 2.90002 14.4999 2.90002C19.3031 2.90002 23.1999 6.7244 23.1999 11.446C23.1999 16.8517 17.7534 23.3314 15.4787 25.801C14.944 26.381 14.0513 26.381 13.5167 25.801C11.242 23.3314 5.79541 16.8517 5.79541 11.446H5.79994ZM14.4999 14.5C16.0995 14.5 17.3999 13.1996 17.3999 11.6C17.3999 10.0005 16.0995 8.70002 14.4999 8.70002C12.9004 8.70002 11.5999 10.0005 11.5999 11.6C11.5999 13.1996 12.9004 14.5 14.4999 14.5Z" fill="white"/>
</svg>
