<svg width="30" height="30" viewBox="0 0 30 30" fill="none" xmlns="http://www.w3.org/2000/svg">
<path d="M13.28 4.42822H9.76512C8.40899 4.42822 7.22353 5.35537 6.90064 6.66999L3.01675 22.3485C2.6708 23.7416 3.72711 25.0931 5.16627 25.0931H13.28V22.141C13.28 21.3245 13.9396 20.6649 14.756 20.6649C15.5725 20.6649 16.2321 21.3245 16.2321 22.141V25.0931H24.3551C25.7942 25.0931 26.8505 23.7416 26.5046 22.3485L22.6253 6.66999C22.2978 5.35537 21.1169 4.42822 19.7562 4.42822H16.2321V7.38034C16.2321 8.19679 15.5725 8.85641 14.756 8.85641C13.9396 8.85641 13.28 8.19679 13.28 7.38034V4.42822ZM16.2321 13.2846V16.2367C16.2321 17.0532 15.5725 17.7128 14.756 17.7128C13.9396 17.7128 13.28 17.0532 13.28 16.2367V13.2846C13.28 12.4681 13.9396 11.8085 14.756 11.8085C15.5725 11.8085 16.2321 12.4681 16.2321 13.2846Z" fill="white"/>
</svg>
