<svg width="29" height="29" viewBox="0 0 29 29" fill="none" xmlns="http://www.w3.org/2000/svg">
<path d="M21.7499 12.3249C21.7499 14.4047 21.0747 16.326 19.9374 17.8847L25.674 23.6258C26.2404 24.1922 26.2404 25.1121 25.674 25.6785C25.1076 26.2449 24.1877 26.2449 23.6213 25.6785L17.8847 19.9374C16.326 21.0747 14.4047 21.7499 12.3249 21.7499C7.1185 21.7499 2.8999 17.5313 2.8999 12.3249C2.8999 7.1185 7.1185 2.8999 12.3249 2.8999C17.5313 2.8999 21.7499 7.1185 21.7499 12.3249ZM12.3249 18.8499C15.9272 18.8499 18.8499 15.9272 18.8499 12.3249C18.8499 8.72256 15.9272 5.7999 12.3249 5.7999C8.72256 5.7999 5.7999 8.72256 5.7999 12.3249C5.7999 15.9272 8.72256 18.8499 12.3249 18.8499Z" fill="white"/>
</svg>
